<svg xmlns="http://www.w3.org/2000/svg" width="7485" height="136" fill="none"><path fill="#fff" d="M89.665 132.028v-12.822h12.821v12.822zm-12.821-12.822v-12.822h12.821v12.822zm-12.821-12.822V93.561h12.821v12.823zM89.665 68V16.711h12.821V68zM0 132.028V3.972h89.665V16.71H12.821V68h76.844v12.822H64.023v12.74H51.202v-12.74h-38.38v51.206zm120.484.675V3.208h76.755V18.49h-62.711v39.66h58.736v15.193h-58.736v44.078h65.184v15.281zm86.654-41.604 13.249-1.413q1.06 10.688 4.769 16.694 3.798 5.919 10.776 9.54 6.978 3.622 15.722 3.622 12.542 0 19.431-6.095 6.978-6.183 6.978-15.988 0-5.742-2.561-9.982-2.474-4.327-7.596-7.066-5.035-2.74-21.905-7.685-15.015-4.417-21.374-8.922-6.36-4.504-9.893-11.395-3.533-6.978-3.533-15.723 0-15.723 10.157-25.704T248.739 1q11.836 0 20.668 4.682 8.92 4.68 13.779 13.426 4.946 8.744 5.299 20.582l-13.513 1.236q-1.06-12.63-7.596-18.726-6.448-6.095-18.195-6.095-11.924 0-18.195 5.388-6.271 5.3-6.271 13.78 0 7.861 4.593 12.19t20.668 8.745q15.721 4.328 22.081 7.508 9.715 4.946 14.662 13.073 4.946 8.038 4.946 19.257 0 11.13-5.211 20.316-5.211 9.098-14.22 13.868-8.921 4.77-21.552 4.77-19.696 0-31.443-11.837-11.659-11.836-12.101-32.064m99.108 41.604V3.208h14.043v129.495zm30.567 0V3.208h14.044v114.214h52.288v15.281zm78.793 0V3.208h14.044v129.495zm31.716 0V3.208h76.754V18.49h-62.71v39.66h58.736v15.193h-58.736v44.078h65.183v15.281z"/><path stroke="#000" stroke-width="1.524" d="M120.484 132.703V3.208h76.755V18.49h-62.711v39.66h58.736v15.193h-58.736v44.078h65.184v15.281zm86.654-41.604 13.249-1.413q1.06 10.688 4.769 16.694 3.798 5.919 10.776 9.54 6.978 3.622 15.722 3.622 12.542 0 19.431-6.095 6.978-6.183 6.978-15.988 0-5.742-2.561-9.982-2.474-4.327-7.596-7.066-5.035-2.74-21.905-7.685-15.015-4.417-21.374-8.922-6.36-4.504-9.893-11.395-3.533-6.978-3.533-15.723 0-15.723 10.157-25.704T248.739 1q11.836 0 20.668 4.682 8.92 4.68 13.779 13.426 4.946 8.744 5.299 20.582l-13.513 1.236q-1.06-12.63-7.596-18.726-6.448-6.095-18.195-6.095-11.924 0-18.195 5.388-6.271 5.3-6.271 13.78 0 7.861 4.593 12.19t20.668 8.745q15.721 4.328 22.081 7.508 9.715 4.946 14.662 13.073 4.946 8.038 4.946 19.257 0 11.13-5.211 20.316-5.211 9.098-14.22 13.868-8.921 4.77-21.552 4.77-19.696 0-31.443-11.837-11.659-11.836-12.101-32.064Zm99.108 41.604V3.208h14.043v129.495zm30.567 0V3.208h14.044v114.214h52.288v15.281zm78.793 0V3.208h14.044v129.495zm31.716 0V3.208h76.754V18.49h-62.71v39.66h58.736v15.193h-58.736v44.078h65.183v15.281z"/><path fill="#fff" d="M591.899 106.494V80.859h12.859v25.635zm-12.775-25.635V55.141h12.775v25.718zm-12.859-25.718V29.423h12.859v25.718zm-25.718 77.071V3.789h12.859v12.775h12.859v12.859h-12.859v102.789zm77.07 0v-12.859h-12.859v-12.859h12.859V3.789h12.859v128.423zm56.578 0v-12.859h51.352v12.859zm-12.859-12.859v-12.859h12.859v12.859zm64.211 0v-12.859h12.859v12.859zm12.859-12.859v-12.86h12.859v12.86zm-89.929 0V29.423h12.859v77.071zm89.929-64.212V29.423h12.859v12.859zm-77.07-12.859V16.564h12.859v12.859zm64.211 0V16.564h12.859v12.859zm-51.352-12.859V3.789h51.352v12.775z"/><path fill="#fff" stroke="#000" stroke-width="1.524" d="M769.266 132.748V3.252h76.754v15.282h-62.711v39.661h58.736v15.193h-58.736v44.078h65.184v15.282z"/><path fill="#B8FD11" stroke="#000" stroke-width="1.524" d="M957.111 3.445h9.337c.786.139 1.283.392 1.58.69.288.288.462.689.462 1.286v24.192c0 .796-.199 1.252-.462 1.515-.263.264-.72.462-1.515.462h-9.402c-.796 0-1.252-.198-1.515-.462-.263-.263-.462-.72-.462-1.515V5.486c.14-.786.392-1.282.69-1.58.288-.288.689-.461 1.287-.461Zm-44.454 14.788h10.706c.787.14 1.283.393 1.58.69.288.288.462.69.462 1.287v9.403c0 .796-.199 1.252-.462 1.515-.263.264-.72.462-1.515.462h-10.771c-.758 0-1.189-.195-1.438-.452-.254-.263-.448-.723-.448-1.525v-9.35c.113-.794.349-1.286.631-1.577.269-.28.657-.453 1.255-.453Zm87.543 0h9.33c.79.14 1.29.393 1.58.69.29.288.46.69.46 1.287v9.403c0 .796-.19 1.252-.46 1.515-.26.264-.72.462-1.51.462h-9.4c-.8 0-1.256-.198-1.519-.462-.264-.263-.462-.72-.462-1.515v-9.338c.139-.786.392-1.283.69-1.58.288-.288.689-.462 1.291-.462Zm-57.877 28.3h38.912c.787.14 1.283.392 1.581.69.288.288.461.69.461 1.287v38.98c0 .796-.198 1.252-.461 1.516-.264.263-.72.461-1.516.461h-38.977c-.795 0-1.252-.198-1.515-.462-.263-.263-.461-.72-.461-1.515V48.575c.139-.787.392-1.283.689-1.58.289-.289.69-.462 1.287-.462Zm-43.085 14.789h24.125c.787.14 1.283.392 1.58.69.288.288.462.69.462 1.287V72.7c0 .796-.199 1.253-.462 1.516s-.72.461-1.515.461h-26.166V63.364c.139-.787.392-1.283.689-1.58.289-.289.69-.462 1.287-.462Zm100.962 0h24.12c.79.14 1.28.392 1.58.69.29.288.46.69.46 1.287V72.7c0 .796-.2 1.253-.46 1.516s-.72.461-1.51.461h-24.19c-.8 0-1.256-.198-1.519-.461-.264-.263-.462-.72-.462-1.516v-9.337c.139-.787.392-1.283.69-1.58.288-.289.689-.462 1.291-.462Zm-87.543 43.088h10.706c.787.139 1.283.392 1.58.69.288.288.462.689.462 1.287v10.772c0 .758-.195 1.189-.453 1.438-.262.254-.722.448-1.524.448h-10.771c-.765 0-1.199-.191-1.447-.439s-.439-.682-.439-1.447v-10.72c.113-.793.349-1.285.631-1.577.269-.279.657-.452 1.255-.452Zm44.454 0h9.337c.786.139 1.283.392 1.58.69.288.288.462.689.462 1.287v24.192c0 .795-.199 1.252-.462 1.515s-.72.461-1.515.461h-9.402c-.796 0-1.252-.198-1.515-.461s-.462-.72-.462-1.515v-24.127c.14-.787.392-1.283.69-1.58.288-.289.689-.462 1.287-.462Zm43.089 0h9.33c.79.139 1.29.392 1.58.69.29.288.46.689.46 1.287v10.772c0 .758-.19 1.189-.45 1.438-.26.254-.72.448-1.52.448h-9.4c-.806 0-1.266-.194-1.529-.448-.257-.249-.452-.68-.452-1.438v-10.707c.139-.787.392-1.283.69-1.58.288-.289.689-.462 1.291-.462Z"/><path fill="#fff" d="M1164.78 132.028v-12.822h12.82v12.822zm-12.82-12.822v-12.822h12.82v12.822zm-12.82-12.822V93.561h12.82v12.823zM1164.78 68V16.711h12.82V68zm-89.66 64.028V3.972h89.66V16.71h-76.84V68h76.84v12.822h-25.64v12.74h-12.82v-12.74h-38.38v51.206zm120.48.675V3.208h76.76V18.49h-62.71v39.66h58.73v15.193h-58.73v44.078h65.18v15.281zm86.66-41.604 13.24-1.413q1.065 10.688 4.77 16.694c2.54 3.946 6.13 7.126 10.78 9.54q6.975 3.622 15.72 3.622c8.36 0 14.84-2.032 19.43-6.095 4.65-4.122 6.98-9.452 6.98-15.988 0-3.828-.85-7.155-2.56-9.982-1.65-2.885-4.18-5.24-7.6-7.066q-5.025-2.74-21.9-7.685c-10.01-2.945-17.14-5.918-21.38-8.922-4.24-3.003-7.53-6.801-9.89-11.395-2.35-4.652-3.53-9.893-3.53-15.723 0-10.482 3.38-19.05 10.16-25.704C1303.25 4.327 1312.37 1 1323.86 1c7.89 0 14.78 1.56 20.66 4.682 5.95 3.12 10.54 7.596 13.78 13.426 3.3 5.83 5.07 12.69 5.3 20.582l-13.51 1.236c-.71-8.42-3.24-14.663-7.6-18.726-4.3-4.063-10.36-6.095-18.19-6.095-7.95 0-14.02 1.796-18.2 5.388q-6.27 5.3-6.27 13.78 0 7.861 4.59 12.19 4.605 4.328 20.67 8.745 15.72 4.328 22.08 7.508 9.72 4.946 14.67 13.073c3.29 5.359 4.94 11.778 4.94 19.257 0 7.419-1.73 14.192-5.21 20.316q-5.205 9.098-14.22 13.868c-5.95 3.18-13.13 4.77-21.55 4.77q-19.695 0-31.44-11.837c-7.78-7.891-11.81-18.579-12.1-32.064m99.1 41.604V3.208h14.05v129.495zm30.57 0V3.208h14.04v114.214h52.29v15.281zm78.79 0V3.208h14.05v129.495zm31.72 0V3.208h76.75V18.49h-62.71v39.66h58.74v15.193h-58.74v44.078h65.19v15.281z"/><path stroke="#000" stroke-width="1.524" d="M1195.6 132.703V3.208h76.76V18.49h-62.71v39.66h58.73v15.193h-58.73v44.078h65.18v15.281zm86.66-41.604 13.24-1.413q1.065 10.688 4.77 16.694c2.54 3.946 6.13 7.126 10.78 9.54q6.975 3.622 15.72 3.622c8.36 0 14.84-2.032 19.43-6.095 4.65-4.122 6.98-9.452 6.98-15.988 0-3.828-.85-7.155-2.56-9.982-1.65-2.885-4.18-5.24-7.6-7.066q-5.025-2.74-21.9-7.685c-10.01-2.945-17.14-5.918-21.38-8.922-4.24-3.003-7.53-6.801-9.89-11.395-2.35-4.652-3.53-9.893-3.53-15.723 0-10.482 3.38-19.05 10.16-25.704C1303.25 4.327 1312.37 1 1323.86 1c7.89 0 14.78 1.56 20.66 4.682 5.95 3.12 10.54 7.596 13.78 13.426 3.3 5.83 5.07 12.69 5.3 20.582l-13.51 1.236c-.71-8.42-3.24-14.663-7.6-18.726-4.3-4.063-10.36-6.095-18.19-6.095-7.95 0-14.02 1.796-18.2 5.388q-6.27 5.3-6.27 13.78 0 7.861 4.59 12.19 4.605 4.328 20.67 8.745 15.72 4.328 22.08 7.508 9.72 4.946 14.67 13.073c3.29 5.359 4.94 11.778 4.94 19.257 0 7.419-1.73 14.192-5.21 20.316q-5.205 9.098-14.22 13.868c-5.95 3.18-13.13 4.77-21.55 4.77q-19.695 0-31.44-11.837c-7.78-7.891-11.81-18.579-12.1-32.064Zm99.1 41.604V3.208h14.05v129.495zm30.57 0V3.208h14.04v114.214h52.29v15.281zm78.79 0V3.208h14.05v129.495zm31.72 0V3.208h76.75V18.49h-62.71v39.66h58.74v15.193h-58.74v44.078h65.19v15.281z"/><path fill="#fff" d="M1667.02 106.494V80.859h12.86v25.635zm-12.78-25.635V55.141h12.78v25.718zm-12.86-25.718V29.423h12.86v25.718zm-25.72 77.071V3.789h12.86v12.775h12.86v12.859h-12.86v102.789zm77.07 0v-12.859h-12.85v-12.859h12.85V3.789h12.86v128.423zm56.58 0v-12.859h51.35v12.859zm-12.86-12.859v-12.859h12.86v12.859zm64.21 0v-12.859h12.86v12.859zm12.86-12.859v-12.86h12.86v12.86zm-89.93 0V29.423h12.86v77.071zm89.93-64.212V29.423h12.86v12.859zm-77.07-12.859V16.564h12.86v12.859zm64.21 0V16.564h12.86v12.859zm-51.35-12.859V3.789h51.35v12.775z"/><path fill="#fff" stroke="#000" stroke-width="1.524" d="M1844.38 132.748V3.252h76.76v15.282h-62.71v39.661h58.73v15.193h-58.73v44.078h65.18v15.282z"/><path fill="#8A8A8A" stroke="#000" stroke-width="1.524" d="M2028.82 31.499h-56.44V18.233h55.78l-.01-.766-.08-14.114h13.59c.78.14 1.28.393 1.58.69.28.288.46.69.46 1.287v11.38h-14.88zm15.64-13.266h55.17c.8.113 1.29.35 1.58.63.28.27.45.658.45 1.256v9.403c0 .795-.2 1.252-.46 1.515s-.72.462-1.52.462h-55.83V18.233zm-1.37 13.42.61.004v14.876h12.85c.75.111 1.22.344 1.5.621.27.268.44.659.44 1.264v27.784h26.99l.15-.563 3.87-14.317h10.12c.79.14 1.28.392 1.58.69.29.288.46.69.46 1.287v24.283c0 .758-.19 1.188-.45 1.437-.26.254-.72.448-1.53.448H2072v14.88h-13.51v14.943h26.34c.75.138 1.22.388 1.51.681.27.287.44.691.44 1.296v11.38h-99.01c-.75 0-1.18-.195-1.43-.453-.26-.262-.45-.722-.45-1.524v-9.351c.11-.793.35-1.285.63-1.576.27-.279.66-.453 1.25-.453h12.91v-14.943h-12.91c-.75 0-1.18-.194-1.43-.452-.26-.263-.45-.723-.45-1.525V63.35c.11-.792.35-1.285.63-1.576.27-.279.66-.452 1.25-.452h12.91V48.486c.13-.75.38-1.222.68-1.505.28-.278.69-.448 1.29-.448h27.69V31.567zm-29.06 31.646v11.38h-13.51v13.664h29.82V63.3c0-1.024-.24-1.933-.87-2.584-.64-.655-1.53-.917-2.54-.917h-9.55l-.07.011c-.98.169-1.81.523-2.4 1.134-.61.626-.88 1.44-.88 2.356Zm.76 41.048h-.76v14.943h29.82v-14.943z"/><path fill="#fff" d="M2240.09 132.028v-12.822h12.82v12.822zm-12.82-12.822v-12.822h12.82v12.822zm-12.83-12.822V93.561h12.83v12.823zM2240.09 68V16.711h12.82V68zm-89.67 64.028V3.972h89.67V16.71h-76.85V68h76.85v12.822h-25.65v12.74h-12.82v-12.74h-38.38v51.206zm120.49.675V3.208h76.75V18.49h-62.71v39.66h58.74v15.193h-58.74v44.078h65.18v15.281zm86.65-41.604 13.25-1.413q1.065 10.688 4.77 16.694 3.795 5.919 10.77 9.54c4.66 2.415 9.9 3.622 15.73 3.622 8.36 0 14.83-2.032 19.43-6.095 4.65-4.122 6.97-9.452 6.97-15.988 0-3.828-.85-7.155-2.56-9.982q-2.475-4.327-7.59-7.066c-3.36-1.826-10.66-4.388-21.91-7.685-10.01-2.945-17.13-5.918-21.37-8.922-4.24-3.003-7.54-6.801-9.89-11.395q-3.54-6.978-3.54-15.723c0-10.482 3.39-19.05 10.16-25.704 6.77-6.655 15.9-9.982 27.38-9.982q11.835 0 20.67 4.682c5.95 3.12 10.54 7.596 13.78 13.426 3.3 5.83 5.06 12.69 5.3 20.582l-13.52 1.236q-1.05-12.63-7.59-18.726c-4.3-4.063-10.37-6.095-18.2-6.095-7.95 0-14.01 1.796-18.19 5.388q-6.27 5.3-6.27 13.78 0 7.861 4.59 12.19t20.67 8.745q15.72 4.328 22.08 7.508c6.48 3.298 11.36 7.655 14.66 13.073q4.95 8.038 4.95 19.257c0 7.419-1.74 14.192-5.21 20.316q-5.22 9.098-14.22 13.868c-5.95 3.18-13.14 4.77-21.56 4.77q-19.695 0-31.44-11.837c-7.77-7.891-11.81-18.579-12.1-32.064m99.11 41.604V3.208h14.04v129.495zm30.57 0V3.208h14.04v114.214h52.29v15.281zm78.79 0V3.208h14.04v129.495zm31.71 0V3.208h76.76V18.49h-62.71v39.66h58.73v15.193h-58.73v44.078h65.18v15.281z"/><path stroke="#000" stroke-width="1.524" d="M2270.91 132.703V3.208h76.75V18.49h-62.71v39.66h58.74v15.193h-58.74v44.078h65.18v15.281zm86.65-41.604 13.25-1.413q1.065 10.688 4.77 16.694 3.795 5.919 10.77 9.54c4.66 2.415 9.9 3.622 15.73 3.622 8.36 0 14.83-2.032 19.43-6.095 4.65-4.122 6.97-9.452 6.97-15.988 0-3.828-.85-7.155-2.56-9.982q-2.475-4.327-7.59-7.066c-3.36-1.826-10.66-4.388-21.91-7.685-10.01-2.945-17.13-5.918-21.37-8.922-4.24-3.003-7.54-6.801-9.89-11.395q-3.54-6.978-3.54-15.723c0-10.482 3.39-19.05 10.16-25.704 6.77-6.655 15.9-9.982 27.38-9.982q11.835 0 20.67 4.682c5.95 3.12 10.54 7.596 13.78 13.426 3.3 5.83 5.06 12.69 5.3 20.582l-13.52 1.236q-1.05-12.63-7.59-18.726c-4.3-4.063-10.37-6.095-18.2-6.095-7.95 0-14.01 1.796-18.19 5.388q-6.27 5.3-6.27 13.78 0 7.861 4.59 12.19t20.67 8.745q15.72 4.328 22.08 7.508c6.48 3.298 11.36 7.655 14.66 13.073q4.95 8.038 4.95 19.257c0 7.419-1.74 14.192-5.21 20.316q-5.22 9.098-14.22 13.868c-5.95 3.18-13.14 4.77-21.56 4.77q-19.695 0-31.44-11.837c-7.77-7.891-11.81-18.579-12.1-32.064Zm99.11 41.604V3.208h14.04v129.495zm30.57 0V3.208h14.04v114.214h52.29v15.281zm78.79 0V3.208h14.04v129.495zm31.71 0V3.208h76.76V18.49h-62.71v39.66h58.73v15.193h-58.73v44.078h65.18v15.281z"/><path fill="#fff" d="M2742.32 106.494V80.859h12.86v25.635zm-12.77-25.635V55.141h12.77v25.718zm-12.86-25.718V29.423h12.86v25.718zm-25.72 77.071V3.789h12.86v12.775h12.86v12.859h-12.86v102.789zm77.07 0v-12.859h-12.86v-12.859h12.86V3.789h12.86v128.423zm56.58 0v-12.859h51.35v12.859zm-12.86-12.859v-12.859h12.86v12.859zm64.21 0v-12.859h12.86v12.859zm12.86-12.859v-12.86h12.86v12.86zm-89.93 0V29.423h12.86v77.071zm89.93-64.212V29.423h12.86v12.859zm-77.07-12.859V16.564h12.86v12.859zm64.21 0V16.564h12.86v12.859zm-51.35-12.859V3.789h51.35v12.775z"/><path fill="#fff" stroke="#000" stroke-width="1.524" d="M2919.69 132.748V3.252h76.75v15.282h-62.71v39.661h58.74v15.193h-58.74v44.078h65.18v15.282z"/><path fill="#B8FD11" stroke="#000" stroke-width="1.524" d="m3133.06 118.716.09 13.934-70.77.268v-14.969h-12.81c-.77 0-1.2-.19-1.45-.438s-.44-.682-.44-1.447v-53.52c.14-.756.39-1.23.67-1.514.27-.274.65-.439 1.22-.439h12.81V47.847c.14-.756.38-1.231.67-1.514.27-.274.65-.44 1.22-.44h11.53v-29.64h-11.53c-.77 0-1.2-.19-1.45-.438s-.44-.682-.44-1.447V5.032c.14-.756.38-1.23.67-1.514.27-.274.65-.439 1.22-.439h66.84c.75.14 1.23.384 1.51.667.28.274.44.654.44 1.219v12.571l-13.94.087-.76.004v28.267h12.76c.76.111 1.22.344 1.5.621.27.268.44.659.44 1.264v12.812h12.75c.79.14 1.29.389 1.59.676.28.276.45.652.45 1.21v53.587c0 .758-.2 1.188-.45 1.437-.27.254-.73.448-1.53.448h-12.81zM3091.1 16.253h-.76V58.46c0 .796-.2 1.252-.46 1.516-.26.263-.72.461-1.52.461h-12.81v13.328h-11.35l-.06.011c-.98.17-1.82.523-2.41 1.135-.6.626-.87 1.438-.87 2.355v12.721h70.31c1 0 1.89-.251 2.53-.885.63-.635.88-1.525.88-2.525v-9.311c0-1.024-.24-1.933-.87-2.584-.64-.655-1.53-.917-2.54-.917h-11.28V60.437h-12.81c-.76 0-1.19-.194-1.44-.452-.26-.263-.45-.723-.45-1.525V16.253zm-14.79 86.999h-.76v14.851h14.94v-14.851z"/><path fill="#fff" d="M3286.27 132.028v-12.822h12.83v12.822zm-12.82-12.822v-12.822h12.82v12.822zm-12.82-12.822V93.561h12.82v12.823zM3286.27 68V16.711h12.83V68zm-89.66 64.028V3.972h89.66V16.71h-76.84V68h76.84v12.822h-25.64v12.74h-12.82v-12.74h-38.38v51.206zm120.48.675V3.208h76.76V18.49h-62.71v39.66h58.73v15.193h-58.73v44.078h65.18v15.281zm86.66-41.604 13.25-1.413q1.05 10.688 4.77 16.694 3.795 5.919 10.77 9.54 6.975 3.622 15.72 3.622c8.36 0 14.84-2.032 19.43-6.095 4.66-4.122 6.98-9.452 6.98-15.988 0-3.828-.85-7.155-2.56-9.982q-2.475-4.327-7.59-7.066c-3.36-1.826-10.66-4.388-21.91-7.685-10.01-2.945-17.13-5.918-21.37-8.922q-6.36-4.504-9.9-11.395c-2.35-4.652-3.53-9.893-3.53-15.723 0-10.482 3.39-19.05 10.16-25.704 6.77-6.655 15.9-9.982 27.38-9.982q11.835 0 20.67 4.682c5.94 3.12 10.54 7.596 13.78 13.426 3.29 5.83 5.06 12.69 5.29 20.582l-13.51 1.236q-1.065-12.63-7.59-18.726c-4.3-4.063-10.37-6.095-18.2-6.095-7.95 0-14.01 1.796-18.19 5.388-4.19 3.533-6.28 8.127-6.28 13.78 0 5.241 1.54 9.304 4.6 12.19q4.59 4.328 20.67 8.745 15.72 4.328 22.08 7.508c6.47 3.298 11.36 7.655 14.66 13.073 3.3 5.359 4.94 11.778 4.94 19.257 0 7.419-1.73 14.192-5.21 20.316q-5.205 9.098-14.22 13.868c-5.94 3.18-13.13 4.77-21.55 4.77q-19.695 0-31.44-11.837c-7.77-7.891-11.81-18.579-12.1-32.064m99.11 41.604V3.208h14.04v129.495zm30.56 0V3.208h14.05v114.214h52.28v15.281zm78.8 0V3.208h14.04v129.495zm31.71 0V3.208h76.76V18.49h-62.72v39.66h58.74v15.193h-58.74v44.078h65.19v15.281z"/><path stroke="#000" stroke-width="1.524" d="M3317.09 132.703V3.208h76.76V18.49h-62.71v39.66h58.73v15.193h-58.73v44.078h65.18v15.281zm86.66-41.604 13.25-1.413q1.05 10.688 4.77 16.694 3.795 5.919 10.77 9.54 6.975 3.622 15.72 3.622c8.36 0 14.84-2.032 19.43-6.095 4.66-4.122 6.98-9.452 6.98-15.988 0-3.828-.85-7.155-2.56-9.982q-2.475-4.327-7.59-7.066c-3.36-1.826-10.66-4.388-21.91-7.685-10.01-2.945-17.13-5.918-21.37-8.922q-6.36-4.504-9.9-11.395c-2.35-4.652-3.53-9.893-3.53-15.723 0-10.482 3.39-19.05 10.16-25.704 6.77-6.655 15.9-9.982 27.38-9.982q11.835 0 20.67 4.682c5.94 3.12 10.54 7.596 13.78 13.426 3.29 5.83 5.06 12.69 5.29 20.582l-13.51 1.236q-1.065-12.63-7.59-18.726c-4.3-4.063-10.37-6.095-18.2-6.095-7.95 0-14.01 1.796-18.19 5.388-4.19 3.533-6.28 8.127-6.28 13.78 0 5.241 1.54 9.304 4.6 12.19q4.59 4.328 20.67 8.745 15.72 4.328 22.08 7.508c6.47 3.298 11.36 7.655 14.66 13.073 3.3 5.359 4.94 11.778 4.94 19.257 0 7.419-1.73 14.192-5.21 20.316q-5.205 9.098-14.22 13.868c-5.94 3.18-13.13 4.77-21.55 4.77q-19.695 0-31.44-11.837c-7.77-7.891-11.81-18.579-12.1-32.064Zm99.11 41.604V3.208h14.04v129.495zm30.56 0V3.208h14.05v114.214h52.28v15.281zm78.8 0V3.208h14.04v129.495zm31.71 0V3.208h76.76V18.49h-62.72v39.66h58.74v15.193h-58.74v44.078h65.19v15.281z"/><path fill="#fff" d="M3788.51 106.494V80.859h12.86v25.635zm-12.78-25.635V55.141h12.78v25.718zm-12.86-25.718V29.423h12.86v25.718zm-25.71 77.071V3.789h12.86v12.775h12.85v12.859h-12.85v102.789zm77.07 0v-12.859h-12.86v-12.859h12.86V3.789h12.86v128.423zm56.57 0v-12.859h51.36v12.859zm-12.86-12.859v-12.859h12.86v12.859zm64.22 0v-12.859h12.86v12.859zm12.86-12.859v-12.86h12.85v12.86zm-89.93 0V29.423h12.85v77.071zm89.93-64.212V29.423h12.85v12.859zm-77.08-12.859V16.564h12.86v12.859zm64.22 0V16.564h12.86v12.859zm-51.36-12.859V3.789h51.36v12.775z"/><path fill="#fff" stroke="#000" stroke-width="1.524" d="M3965.88 132.748V3.252h76.75v15.282h-62.71v39.661h58.73v15.193h-58.73v44.078h65.18v15.282z"/><path fill="#8A8A8A" stroke="#000" stroke-width="1.524" d="M4172.37 92.876V67.438h9.85c.67.11 1.07.318 1.3.553.23.225.38.549.38 1.059v11.534h11.47c.66.11 1.06.318 1.3.552.22.226.37.55.37 1.06v11.442h11.38c.67.11 1.07.318 1.3.553.23.225.37.549.37 1.059v9.494c0 .674-.17 1.039-.37 1.241s-.57.371-1.24.371h-11.44v11.533c0 .674-.17 1.04-.37 1.242s-.57.37-1.24.37h-11.53v11.443c0 .673-.17 1.039-.38 1.241-.2.203-.56.37-1.24.37h-8.3c-.68 0-1.04-.167-1.24-.37-.21-.202-.37-.568-.37-1.241v-24.588h-76.9c-.67 0-1.03-.168-1.24-.371-.2-.202-.37-.567-.37-1.241V95.31c.11-.664.32-1.067.56-1.302.22-.225.54-.37 1.05-.37h76.9zm-51.85-89.061c.2-.202.57-.37 1.24-.37l8.3.09h.01c.67 0 1.04.169 1.24.371s.37.567.37 1.24v.002l-.09 23.732v.762l.76.002 76.13.274c.67 0 1.04.168 1.24.37.2.203.37.568.37 1.242v9.434c-.11.664-.32 1.067-.55 1.302-.22.225-.55.37-1.06.37l-76.13-.183-.76-.002v.761l-.09 25.35h-9.86c-.66-.11-1.07-.318-1.3-.553-.23-.225-.37-.549-.37-1.059V55.416h-11.38c-.67-.11-1.07-.318-1.3-.552-.23-.226-.37-.55-.37-1.06V42.369l-.76-.006-10.62-.09c-.67-.11-1.07-.32-1.31-.554-.22-.225-.37-.55-.37-1.06v-9.493c0-.666.17-1.028.39-1.232.21-.208.61-.38 1.32-.38h11.44V18.111c0-.674.17-1.04.37-1.242s.56-.37 1.24-.37l10.76.091.77.007V5.056c0-.674.17-1.039.37-1.241Z"/><path fill="#fff" d="M4348.52 132.028v-12.822h12.83v12.822zm-12.82-12.822v-12.822h12.82v12.822zm-12.82-12.822V93.561h12.82v12.823zM4348.52 68V16.711h12.83V68zm-89.66 64.028V3.972h89.66V16.71h-76.84V68h76.84v12.822h-25.64v12.74h-12.82v-12.74h-38.38v51.206zm120.48.675V3.208h76.76V18.49h-62.71v39.66h58.73v15.193h-58.73v44.078h65.18v15.281zM4466 91.099l13.25-1.413q1.05 10.688 4.77 16.694 3.795 5.919 10.77 9.54 6.975 3.622 15.72 3.622c8.36 0 14.84-2.032 19.43-6.095 4.66-4.122 6.98-9.452 6.98-15.988 0-3.828-.85-7.155-2.56-9.982q-2.475-4.327-7.59-7.066c-3.36-1.826-10.66-4.388-21.91-7.685-10.01-2.945-17.13-5.918-21.37-8.922q-6.36-4.504-9.9-11.395c-2.35-4.652-3.53-9.893-3.53-15.723 0-10.482 3.39-19.05 10.16-25.704C4486.99 4.327 4496.12 1 4507.6 1q11.835 0 20.67 4.682c5.94 3.12 10.54 7.596 13.78 13.426 3.29 5.83 5.06 12.69 5.29 20.582l-13.51 1.236q-1.065-12.63-7.59-18.726c-4.3-4.063-10.37-6.095-18.2-6.095-7.95 0-14.01 1.796-18.19 5.388-4.19 3.533-6.28 8.127-6.28 13.78 0 5.241 1.54 9.304 4.6 12.19q4.59 4.328 20.67 8.745 15.72 4.328 22.08 7.508c6.47 3.298 11.36 7.655 14.66 13.073 3.3 5.359 4.94 11.778 4.94 19.257 0 7.419-1.73 14.192-5.21 20.316q-5.205 9.098-14.22 13.868c-5.94 3.18-13.13 4.77-21.55 4.77q-19.695 0-31.44-11.837c-7.77-7.891-11.81-18.579-12.1-32.064m99.11 41.604V3.208h14.04v129.495zm30.56 0V3.208h14.05v114.214H4662v15.281zm78.8 0V3.208h14.04v129.495zm31.71 0V3.208h76.76V18.49h-62.72v39.66h58.74v15.193h-58.74v44.078h65.19v15.281z"/><path stroke="#000" stroke-width="1.524" d="M4379.34 132.703V3.208h76.76V18.49h-62.71v39.66h58.73v15.193h-58.73v44.078h65.18v15.281zM4466 91.099l13.25-1.413q1.05 10.688 4.77 16.694 3.795 5.919 10.77 9.54 6.975 3.622 15.72 3.622c8.36 0 14.84-2.032 19.43-6.095 4.66-4.122 6.98-9.452 6.98-15.988 0-3.828-.85-7.155-2.56-9.982q-2.475-4.327-7.59-7.066c-3.36-1.826-10.66-4.388-21.91-7.685-10.01-2.945-17.13-5.918-21.37-8.922q-6.36-4.504-9.9-11.395c-2.35-4.652-3.53-9.893-3.53-15.723 0-10.482 3.39-19.05 10.16-25.704C4486.99 4.327 4496.12 1 4507.6 1q11.835 0 20.67 4.682c5.94 3.12 10.54 7.596 13.78 13.426 3.29 5.83 5.06 12.69 5.29 20.582l-13.51 1.236q-1.065-12.63-7.59-18.726c-4.3-4.063-10.37-6.095-18.2-6.095-7.95 0-14.01 1.796-18.19 5.388-4.19 3.533-6.28 8.127-6.28 13.78 0 5.241 1.54 9.304 4.6 12.19q4.59 4.328 20.67 8.745 15.72 4.328 22.08 7.508c6.47 3.298 11.36 7.655 14.66 13.073 3.3 5.359 4.94 11.778 4.94 19.257 0 7.419-1.73 14.192-5.21 20.316q-5.205 9.098-14.22 13.868c-5.94 3.18-13.13 4.77-21.55 4.77q-19.695 0-31.44-11.837c-7.77-7.891-11.81-18.579-12.1-32.064Zm99.11 41.604V3.208h14.04v129.495zm30.56 0V3.208h14.05v114.214H4662v15.281zm78.8 0V3.208h14.04v129.495zm31.71 0V3.208h76.76V18.49h-62.72v39.66h58.74v15.193h-58.74v44.078h65.19v15.281z"/><path fill="#fff" d="M4850.76 106.494V80.859h12.86v25.635zm-12.78-25.635V55.141h12.78v25.718zm-12.86-25.718V29.423h12.86v25.718zm-25.71 77.071V3.789h12.86v12.775h12.85v12.859h-12.85v102.789zm77.07 0v-12.859h-12.86v-12.859h12.86V3.789h12.86v128.423zm56.57 0v-12.859h51.36v12.859zm-12.86-12.859v-12.859h12.86v12.859zm64.22 0v-12.859h12.86v12.859zm12.86-12.859v-12.86h12.85v12.86zm-89.93 0V29.423h12.85v77.071zm89.93-64.212V29.423h12.85v12.859zm-77.08-12.859V16.564h12.86v12.859zm64.22 0V16.564h12.86v12.859zm-51.36-12.859V3.789h51.36v12.775z"/><path fill="#fff" stroke="#000" stroke-width="1.524" d="M5028.12 132.748V3.252h76.76v15.282h-62.71v39.661h58.73v15.193h-58.73v44.078h65.18v15.282z"/><mask id="a" fill="#fff"><path d="M5201.17 2.591h10.41c1.77.244 2.65 1.126 2.65 2.648v11.776h13.05V5.24c.31-1.765 1.19-2.648 2.65-2.648h10.4c1.77.244 2.65 1.126 2.65 2.648v10.407c0 1.765-.88 2.647-2.65 2.647h-13.05l1.28 2.648v24.83h13.14V33.995c.25-1.765 1.1-2.647 2.56-2.647h11.77V19.57c.31-1.704 1.19-2.556 2.65-2.556l12.23.091.1 15.61h-14.98V47.05h-13.05v14.059q23.01.365 27.48.365V48.419q.45-2.648 2.64-2.648h13.33l-.27 3.926v9.128c0 1.765-.88 2.648-2.65 2.648h-11.77l-.37 13.784q-.915.549 14.79.092v12.233c0 1.764-.88 2.647-2.65 2.647h-10.41q-2.64 0-2.64-2.647V75.805h-27.48v13.146h11.78q2.64.364 2.64 2.556v11.776h11.78c1.7.304 2.56 1.187 2.56 2.648v10.498c0 1.704-.86 2.556-2.56 2.556h-10.5c-1.76 0-2.65-.852-2.65-2.556v-11.776h-11.77c-1.7 0-2.56-.883-2.56-2.648V90.229h-13.14v27.478h11.77c1.77.304 2.65 1.187 2.65 2.647v10.407c0 1.765-.88 2.648-2.65 2.648h-10.4c-1.77 0-2.65-.883-2.65-2.648v-11.776h-13.05v11.776c0 1.765-.88 2.648-2.65 2.648h-10.41q-2.64 0-2.64-2.648v-10.407q.36-2.647 2.64-2.647h11.78V90.229h-13.14v11.776c0 1.765-.86 2.648-2.56 2.648h-11.78v11.776q0 2.556-2.64 2.556h-10.5c-1.7 0-2.56-.852-2.56-2.556v-10.498c.25-1.765 1.1-2.648 2.56-2.648h9.22l2.56 1.37V91.507q.45-2.556 2.64-2.556h11.78V75.805h-27.48v11.776c0 1.765-.88 2.648-2.65 2.648H5158c-1.77 0-2.65-.883-2.65-2.647V77.175c.24-1.765 1.13-2.648 2.65-2.648h11.77V61.473H5158c-1.77 0-2.65-.883-2.65-2.648V48.418c.24-1.764 1.13-2.647 2.65-2.647h10.4c1.77.244 2.65 1.126 2.65 2.648v11.776h27.48V47.049h-11.78q-2.64 0-2.64-2.556V32.717h-11.78c-1.7 0-2.56-.883-2.56-2.648V19.571c.25-1.704 1.1-2.556 2.56-2.556h10.5q2.64.366 2.64 2.556v11.776h11.78c1.7.305 2.56 1.187 2.56 2.648V45.77h13.14V18.293h-11.78q-2.64 0-2.64-2.647V5.239q.36-2.648 2.64-2.648m13.06 58.882v13.054h13.05V61.473z"/></mask><path fill="#B8FD11" stroke="#000" stroke-width="3.047" d="M5201.17 2.591h10.41c1.77.244 2.65 1.126 2.65 2.648v11.776h13.05V5.24c.31-1.765 1.19-2.648 2.65-2.648h10.4c1.77.244 2.65 1.126 2.65 2.648v10.407c0 1.765-.88 2.647-2.65 2.647h-13.05l1.28 2.648v24.83h13.14V33.995c.25-1.765 1.1-2.647 2.56-2.647h11.77V19.57c.31-1.704 1.19-2.556 2.65-2.556l12.23.091.1 15.61h-14.98V47.05h-13.05v14.059q23.01.365 27.48.365V48.419q.45-2.648 2.64-2.648h13.33l-.27 3.926v9.128c0 1.765-.88 2.648-2.65 2.648h-11.77l-.37 13.784q-.915.549 14.79.092v12.233c0 1.764-.88 2.647-2.65 2.647h-10.41q-2.64 0-2.64-2.647V75.805h-27.48v13.146h11.78q2.64.364 2.64 2.556v11.776h11.78c1.7.304 2.56 1.187 2.56 2.648v10.498c0 1.704-.86 2.556-2.56 2.556h-10.5c-1.76 0-2.65-.852-2.65-2.556v-11.776h-11.77c-1.7 0-2.56-.883-2.56-2.648V90.229h-13.14v27.478h11.77c1.77.304 2.65 1.187 2.65 2.647v10.407c0 1.765-.88 2.648-2.65 2.648h-10.4c-1.77 0-2.65-.883-2.65-2.648v-11.776h-13.05v11.776c0 1.765-.88 2.648-2.65 2.648h-10.41q-2.64 0-2.64-2.648v-10.407q.36-2.647 2.64-2.647h11.78V90.229h-13.14v11.776c0 1.765-.86 2.648-2.56 2.648h-11.78v11.776q0 2.556-2.64 2.556h-10.5c-1.7 0-2.56-.852-2.56-2.556v-10.498c.25-1.765 1.1-2.648 2.56-2.648h9.22l2.56 1.37V91.507q.45-2.556 2.64-2.556h11.78V75.805h-27.48v11.776c0 1.765-.88 2.648-2.65 2.648H5158c-1.77 0-2.65-.883-2.65-2.647V77.175c.24-1.765 1.13-2.648 2.65-2.648h11.77V61.473H5158c-1.77 0-2.65-.883-2.65-2.648V48.418c.24-1.764 1.13-2.647 2.65-2.647h10.4c1.77.244 2.65 1.126 2.65 2.648v11.776h27.48V47.049h-11.78q-2.64 0-2.64-2.556V32.717h-11.78c-1.7 0-2.56-.883-2.56-2.648V19.571c.25-1.704 1.1-2.556 2.56-2.556h10.5q2.64.366 2.64 2.556v11.776h11.78c1.7.305 2.56 1.187 2.56 2.648V45.77h13.14V18.293h-11.78q-2.64 0-2.64-2.647V5.239q.36-2.648 2.64-2.648Zm13.06 58.882v13.054h13.05V61.473z" mask="url(#a)"/><path fill="#fff" d="M5424.1 132.028v-12.822h12.82v12.822zm-12.82-12.822v-12.822h12.82v12.822zm-12.82-12.822V93.561h12.82v12.823zM5424.1 68V16.711h12.82V68zm-89.66 64.028V3.972h89.66V16.71h-76.84V68h76.84v12.822h-25.64v12.74h-12.82v-12.74h-38.38v51.206zm120.48.675V3.208h76.76V18.49h-62.71v39.66h58.73v15.193h-58.73v44.078h65.18v15.281zm86.66-41.604 13.24-1.413q1.065 10.688 4.77 16.694c2.54 3.946 6.13 7.126 10.78 9.54q6.975 3.622 15.72 3.622c8.36 0 14.84-2.032 19.43-6.095 4.65-4.122 6.98-9.452 6.98-15.988 0-3.828-.85-7.155-2.56-9.982-1.65-2.885-4.18-5.24-7.6-7.066q-5.025-2.74-21.9-7.685c-10.01-2.945-17.14-5.918-21.38-8.922-4.24-3.003-7.53-6.801-9.89-11.395-2.35-4.652-3.53-9.893-3.53-15.723 0-10.482 3.38-19.05 10.16-25.704C5562.57 4.327 5571.69 1 5583.18 1c7.89 0 14.78 1.56 20.66 4.682 5.95 3.12 10.54 7.596 13.78 13.426 3.3 5.83 5.07 12.69 5.3 20.582l-13.51 1.236c-.71-8.42-3.24-14.663-7.6-18.726-4.3-4.063-10.36-6.095-18.19-6.095-7.95 0-14.02 1.796-18.2 5.388q-6.27 5.3-6.27 13.78c0 5.241 1.53 9.304 4.6 12.19 3.06 2.885 9.95 5.8 20.66 8.745q15.72 4.328 22.08 7.508 9.72 4.946 14.67 13.073c3.29 5.359 4.94 11.778 4.94 19.257 0 7.419-1.73 14.192-5.21 20.316q-5.205 9.098-14.22 13.868c-5.95 3.18-13.13 4.77-21.55 4.77q-19.695 0-31.44-11.837c-7.78-7.891-11.81-18.579-12.1-32.064m99.1 41.604V3.208h14.05v129.495zm30.57 0V3.208h14.04v114.214h52.29v15.281zm78.79 0V3.208h14.05v129.495zm31.72 0V3.208h76.75V18.49h-62.71v39.66h58.74v15.193h-58.74v44.078h65.19v15.281z"/><path stroke="#000" stroke-width="1.524" d="M5454.92 132.703V3.208h76.76V18.49h-62.71v39.66h58.73v15.193h-58.73v44.078h65.18v15.281zm86.66-41.604 13.24-1.413q1.065 10.688 4.77 16.694c2.54 3.946 6.13 7.126 10.78 9.54q6.975 3.622 15.72 3.622c8.36 0 14.84-2.032 19.43-6.095 4.65-4.122 6.98-9.452 6.98-15.988 0-3.828-.85-7.155-2.56-9.982-1.65-2.885-4.18-5.24-7.6-7.066q-5.025-2.74-21.9-7.685c-10.01-2.945-17.14-5.918-21.38-8.922-4.24-3.003-7.53-6.801-9.89-11.395-2.35-4.652-3.53-9.893-3.53-15.723 0-10.482 3.38-19.05 10.16-25.704C5562.57 4.327 5571.69 1 5583.18 1c7.89 0 14.78 1.56 20.66 4.682 5.95 3.12 10.54 7.596 13.78 13.426 3.3 5.83 5.07 12.69 5.3 20.582l-13.51 1.236c-.71-8.42-3.24-14.663-7.6-18.726-4.3-4.063-10.36-6.095-18.19-6.095-7.95 0-14.02 1.796-18.2 5.388q-6.27 5.3-6.27 13.78c0 5.241 1.53 9.304 4.6 12.19 3.06 2.885 9.95 5.8 20.66 8.745q15.72 4.328 22.08 7.508 9.72 4.946 14.67 13.073c3.29 5.359 4.94 11.778 4.94 19.257 0 7.419-1.73 14.192-5.21 20.316q-5.205 9.098-14.22 13.868c-5.95 3.18-13.13 4.77-21.55 4.77q-19.695 0-31.44-11.837c-7.78-7.891-11.81-18.579-12.1-32.064Zm99.1 41.604V3.208h14.05v129.495zm30.57 0V3.208h14.04v114.214h52.29v15.281zm78.79 0V3.208h14.05v129.495zm31.72 0V3.208h76.75V18.49h-62.71v39.66h58.74v15.193h-58.74v44.078h65.19v15.281z"/><path fill="#fff" d="M5926.34 106.494V80.859h12.86v25.635zm-12.78-25.635V55.141h12.78v25.718zm-12.86-25.718V29.423h12.86v25.718zm-25.72 77.071V3.789h12.86v12.775h12.86v12.859h-12.86v102.789zm77.07 0v-12.859h-12.85v-12.859h12.85V3.789h12.86v128.423zm56.58 0v-12.859h51.35v12.859zm-12.86-12.859v-12.859h12.86v12.859zm64.21 0v-12.859h12.86v12.859zm12.86-12.859v-12.86h12.86v12.86zm-89.93 0V29.423h12.86v77.071zm89.93-64.212V29.423h12.86v12.859zm-77.07-12.859V16.564h12.86v12.859zm64.21 0V16.564h12.86v12.859zm-51.35-12.859V3.789h51.35v12.775z"/><path fill="#fff" stroke="#000" stroke-width="1.524" d="M6103.7 132.748V3.252h76.76v15.282h-62.71v39.661h58.73v15.193h-58.73v44.078h65.18v15.282z"/><path fill="#8A8A8A" stroke="#000" stroke-width="1.524" d="M6274.41 15.92V5.293c.11-.757.35-1.224.62-1.501.27-.268.66-.439 1.27-.439h40c.76.139 1.23.384 1.52.667.27.274.43.653.43 1.219V16.68h26.08c.75.14 1.23.384 1.51.667.27.274.44.654.44 1.219v27.51h12.75c.76.11 1.23.344 1.51.62.26.269.43.66.43 1.265v25.995l-13.76.165-.69-12.873-.04-.72h-14.9V75.22l-12.74-.082-.43-13.872-.02-.739h-14.83v70.233c0 .765-.19 1.199-.44 1.447s-.68.439-1.45.439h-25.37c-.77 0-1.2-.191-1.45-.439s-.44-.682-.44-1.447v-10.627c.11-.756.35-1.224.62-1.501.27-.268.66-.438 1.27-.438h12.81V60.529h-14.85V71.97c0 .795-.2 1.252-.46 1.515-.27.264-.72.462-1.52.462h-11.2V60.529h-14.94v12.637l-.99 2.06h-12.39l-1.07-2.07V48.028c.14-.756.38-1.23.67-1.514.27-.274.65-.438 1.22-.438h12.81V18.62c.11-.757.34-1.224.62-1.5.27-.269.66-.44 1.26-.44h26.14z"/><path fill="#fff" d="M6499.4 132.028v-12.822h12.82v12.822zm-12.82-12.822v-12.822h12.82v12.822zm-12.82-12.822V93.561h12.82v12.823zM6499.4 68V16.711h12.82V68zm-89.67 64.028V3.972h89.67V16.71h-76.84V68h76.84v12.822h-25.64v12.74h-12.82v-12.74h-38.38v51.206zm120.49.675V3.208h76.75V18.49h-62.71v39.66H6603v15.193h-58.74v44.078h65.19v15.281zm86.65-41.604 13.25-1.413q1.065 10.688 4.77 16.694c2.53 3.946 6.12 7.126 10.78 9.54q6.975 3.622 15.72 3.622c8.36 0 14.84-2.032 19.43-6.095 4.65-4.122 6.98-9.452 6.98-15.988 0-3.828-.86-7.155-2.56-9.982-1.65-2.885-4.18-5.24-7.6-7.066q-5.04-2.74-21.9-7.685c-10.01-2.945-17.14-5.918-21.38-8.922-4.24-3.003-7.54-6.801-9.89-11.395-2.36-4.652-3.53-9.893-3.53-15.723 0-10.482 3.38-19.05 10.15-25.704 6.77-6.655 15.9-9.982 27.38-9.982q11.835 0 20.67 4.682c5.95 3.12 10.54 7.596 13.78 13.426 3.3 5.83 5.06 12.69 5.3 20.582l-13.51 1.236c-.71-8.42-3.24-14.663-7.6-18.726-4.3-4.063-10.36-6.095-18.19-6.095-7.95 0-14.02 1.796-18.2 5.388q-6.27 5.3-6.27 13.78 0 7.861 4.59 12.19t20.67 8.745q15.72 4.328 22.08 7.508c6.48 3.298 11.37 7.655 14.66 13.073q4.95 8.038 4.95 19.257c0 7.419-1.74 14.192-5.21 20.316q-5.22 9.098-14.22 13.868c-5.95 3.18-13.13 4.77-21.55 4.77-13.13 0-23.62-3.946-31.45-11.837-7.77-7.891-11.8-18.579-12.1-32.064m99.11 41.604V3.208h14.04v129.495zm30.57 0V3.208h14.04v114.214h52.29v15.281zm78.79 0V3.208h14.04v129.495zm31.72 0V3.208h76.75V18.49h-62.71v39.66h58.74v15.193h-58.74v44.078h65.18v15.281z"/><path stroke="#000" stroke-width="1.524" d="M6530.22 132.703V3.208h76.75V18.49h-62.71v39.66H6603v15.193h-58.74v44.078h65.19v15.281zm86.65-41.604 13.25-1.413q1.065 10.688 4.77 16.694c2.53 3.946 6.12 7.126 10.78 9.54q6.975 3.622 15.72 3.622c8.36 0 14.84-2.032 19.43-6.095 4.65-4.122 6.98-9.452 6.98-15.988 0-3.828-.86-7.155-2.56-9.982-1.65-2.885-4.18-5.24-7.6-7.066q-5.04-2.74-21.9-7.685c-10.01-2.945-17.14-5.918-21.38-8.922-4.24-3.003-7.54-6.801-9.89-11.395-2.36-4.652-3.53-9.893-3.53-15.723 0-10.482 3.38-19.05 10.15-25.704 6.77-6.655 15.9-9.982 27.38-9.982q11.835 0 20.67 4.682c5.95 3.12 10.54 7.596 13.78 13.426 3.3 5.83 5.06 12.69 5.3 20.582l-13.51 1.236c-.71-8.42-3.24-14.663-7.6-18.726-4.3-4.063-10.36-6.095-18.19-6.095-7.95 0-14.02 1.796-18.2 5.388q-6.27 5.3-6.27 13.78 0 7.861 4.59 12.19t20.67 8.745q15.72 4.328 22.08 7.508c6.48 3.298 11.37 7.655 14.66 13.073q4.95 8.038 4.95 19.257c0 7.419-1.74 14.192-5.21 20.316q-5.22 9.098-14.22 13.868c-5.95 3.18-13.13 4.77-21.55 4.77-13.13 0-23.62-3.946-31.45-11.837-7.77-7.891-11.8-18.579-12.1-32.064Zm99.11 41.604V3.208h14.04v129.495zm30.57 0V3.208h14.04v114.214h52.29v15.281zm78.79 0V3.208h14.04v129.495zm31.72 0V3.208h76.75V18.49h-62.71v39.66h58.74v15.193h-58.74v44.078h65.18v15.281z"/><path fill="#fff" d="M7001.63 106.494V80.859h12.86v25.635zm-12.77-25.635V55.141h12.77v25.718zM6976 55.141V29.423h12.86v25.718zm-25.72 77.071V3.789h12.86v12.775H6976v12.859h-12.86v102.789zm77.07 0v-12.859h-12.86v-12.859h12.86V3.789h12.86v128.423zm56.58 0v-12.859h51.35v12.859zm-12.86-12.859v-12.859h12.86v12.859zm64.21 0v-12.859h12.86v12.859zm12.86-12.859v-12.86H7161v12.86zm-89.93 0V29.423h12.86v77.071zm89.93-64.212V29.423H7161v12.859zm-77.07-12.859V16.564h12.86v12.859zm64.21 0V16.564h12.86v12.859zm-51.35-12.859V3.789h51.35v12.775z"/><path fill="#fff" stroke="#000" stroke-width="1.524" d="M7179 132.748V3.252h76.75v15.282h-62.71v39.661h58.74v15.193h-58.74v44.078h65.19v15.282z"/><path fill="#B8FD11" stroke="#000" stroke-width="1.524" d="M7379.11 15.92V5.293c.11-.757.34-1.224.62-1.501.27-.268.66-.439 1.26-.439h25.31c.76.139 1.23.384 1.52.667.27.274.44.653.44 1.219v24.009c0 .802-.2 1.262-.45 1.524-.25.258-.68.453-1.44.453h-12.81v14.852h28.27V33.319c.11-.757.34-1.224.62-1.501.27-.269.66-.44 1.26-.44h10.62c.75.14 1.23.384 1.51.668.27.274.44.653.44 1.219V73.34c0 .766-.19 1.2-.44 1.447s-.68.439-1.45.439h-12.81v13.328h-28.02v14.943H7405c.36 0 .83.186 1.42.781.57.567 1.19 1.443 1.84 2.663v22.451c0 .357-.19.829-.79 1.424-.56.567-1.44 1.18-2.66 1.831h-23.82c-.76 0-1.19-.191-1.44-.439s-.44-.682-.44-1.447v-12.812h-12.81c-.77 0-1.2-.19-1.45-.438s-.44-.682-.44-1.447v-12.812h-11.44c-.76 0-1.2-.191-1.45-.439-.24-.248-.43-.682-.43-1.447V88.554h-42.21c-.76 0-1.2-.19-1.45-.439-.24-.247-.43-.681-.43-1.446V62.727c.13-.756.38-1.23.66-1.514.28-.274.66-.439 1.22-.439h12.57v14.692l.75.006 13.42.09.77.006V60.529h-14.7V48.016c.11-.757.35-1.224.62-1.5.27-.269.66-.44 1.27-.44h27.51V33.32c.11-.757.34-1.224.62-1.501.26-.269.65-.44 1.26-.44h11.44V18.622c.11-.757.35-1.224.62-1.5.27-.269.66-.44 1.27-.44h12.81zm-31.43 44.609h-.77v14.937l.76.006 13.42.09.77.006V60.529zm23.73 0h-.76v14.937l.75.006 13.42.09.77.006V60.529z"/></svg>