<svg xmlns="http://www.w3.org/2000/svg" width="109" height="62" fill="none"><path fill="#fff" fill-rule="evenodd" d="m42.925 32.69 4.787-.394-2.415-6.402zM58.44 21.92q.235.22.481.581.246.362.508.755l6.24 8.913v-9.514q0-.928.4-1.425l.022-.024-7.691.679zm-.04-.035-.018-.016zm-19.128-.89 1.696-.154c.538-.049.9-.43.9-.947V10.65c0-.433.17-.851.495-1.228a1.8 1.8 0 0 1 1.209-.605l2.28-.206c.458-.041.85.093 1.178.413.33.303.496.678.496 1.114v9.243c0 .517.363.833.9.784l1.725-.156a.7.7 0 0 0 .247-.076c.514-.274.622-.622.622-.868V9.823c0-.434.17-.852.497-1.228a1.8 1.8 0 0 1 1.208-.604l2.28-.206c.461-.042.857.092 1.208.41.33.302.497.678.497 1.114v9.242c0 .518.362.834.899.785l1.695-.153c.537-.049.899-.43.899-.948V8.993c0-1.376-.526-2.463-1.557-3.225-.996-.767-2.222-1.089-3.641-.96l-2.28.206c-1.345.121-2.502.604-3.451 1.437-.945-.661-2.094-.936-3.421-.816l-2.281.207a6.1 6.1 0 0 0-3.67 1.621c-1 .946-1.528 2.158-1.528 3.504v9.243c0 .517.361.833.898.784m45.752-5.427c.995.764 2.22 1.088 3.64.96 1.967-.179 3.458-.505 4.565-.995.382-.174.603-.496.603-.883v-1.117c0-.73-.609-.9-1.04-.753-1.043.345-2.393.588-4.128.745-.474.043-.88-.086-1.208-.387a1.5 1.5 0 0 1-.496-1.14v-5.4c0-.453.167-.867.495-1.227a1.82 1.82 0 0 1 1.209-.606c1.733-.157 3.121-.157 4.121-.002.493.08 1.047-.216 1.047-.94V2.705c0-.368-.197-.645-.578-.777-1.1-.29-2.602-.346-4.59-.166-1.42.129-2.654.684-3.67 1.648-.998.946-1.527 2.158-1.527 3.502v5.402c0 1.366.523 2.46 1.557 3.254M106.81 1.412c-.997-.767-2.222-1.089-3.641-.96-1.777.16-3.116.392-4 .699-.632.24-.7.711-.7.902v1.168q0 .34.177.554a.71.71 0 0 0 .631.242c.043-.004.146-.022.188-.035.685-.208 1.931-.393 3.704-.554.457-.041.849.093 1.178.413.331.302.497.678.497 1.114v.772l-3.956.358c-1.421.129-2.655.682-3.67 1.647-1.013.96-1.527 2.13-1.527 3.477 0 1.364.523 2.459 1.556 3.254.996.763 2.221 1.087 3.641.958l6.58-.595a.925.925 0 0 0 .869-.944V4.639c0-1.344-.528-2.46-1.527-3.227m-1.966 10.65-3.956.357c-.474.043-.88-.086-1.207-.387a1.5 1.5 0 0 1-.497-1.14c0-.436.167-.841.497-1.201a1.8 1.8 0 0 1 1.207-.604l3.956-.358zm-27.23 10.59-2.142.176v10.857l2.46-.203q.807-.067 1.267-.148.46-.083.95-.297.493-.215.853-.561 1.629-1.51 1.629-4.87-.001-2.367-.716-3.487-.717-1.119-1.765-1.354-1.05-.236-2.536-.113M32.016 4.462l2.837-.256c.537-.05.898-.43.898-.947v-1.3c0-.416-.278-.811-.898-.755l-2.837.256c-.62.057-.898.502-.898.919v1.299c0 .518.36.833.898.784m29.928.828c.202-.11.368-.26.503-.431l3.431 3.53-2.046.691a1.05 1.05 0 0 0-.356-.51c-.506-.389-1.267-.265-1.703.279-.435.543-.38 1.299.126 1.688.505.389 1.268.263 1.702-.28.12-.148.2-.313.245-.483l2.053.955c0 .04-.006.08-.006.121 0 4.389 3.563 7.624 7.959 7.227 4.396-.398 7.96-4.278 7.96-8.667 0-4.388-3.564-7.624-7.96-7.226a8.6 8.6 0 0 0-4.448 1.759l-1.734-1.2c.128-.2.21-.43.223-.675A1.157 1.157 0 0 0 66.67.834a1.44 1.44 0 0 0-1.345 1.343 1.153 1.153 0 0 0 1.222 1.232c.193-.008.378-.062.547-.146l.379 2.377-4.69-1.589a1.4 1.4 0 0 0-.118-.768c-.339-.704-1.21-.948-1.946-.544s-1.058 1.302-.72 2.007c.337.704 1.21.948 1.945.544m13.675 7.549a.948.948 0 0 1 1.055.958c0 .583-.472 1.097-1.055 1.15a.947.947 0 0 1-1.055-.959c0-.58.471-1.096 1.055-1.15m-3.671.332a.948.948 0 0 1 1.056.958c0 .582-.472 1.097-1.056 1.15a.947.947 0 0 1-1.055-.959c0-.58.471-1.097 1.055-1.15m8.078 6.8-.043-.001.043.002m-6.55.533q-.098.03-.188.066l.187-.017zm6.576-.532h-.018zm20.535 11.283-.022.053zm-2.58 2.765q-1.44.773-3.42.936-2.371.196-3.913-.572a4.6 4.6 0 0 1-1.776-1.572q-.683-1.018-.683-2.033 0-.589.41-1.043a1.52 1.52 0 0 1 1.044-.506q.513-.042.869.255.355.299.606.922.306.739.661 1.222t1 .763 1.694.193q1.443-.12 2.345-.864.901-.745.901-1.75 0-.795-.486-1.252t-1.257-.655q-.77-.198-2.06-.387-1.727-.261-2.89-.705-1.165-.444-1.848-1.32-.683-.878-.683-2.263 0-1.32.722-2.405.72-1.085 2.087-1.749.383-.185.805-.33l-12.083 1.067q.664.022 1.223.12 1.18.207 2.142.968 2.503 1.933 2.503 6.297 0 1.44-.251 2.65a8.4 8.4 0 0 1-.776 2.208 7.5 7.5 0 0 1-1.345 1.818q-.645.633-1.41 1.044a7 7 0 0 1-1.644.627q-.88.213-1.984.305l-4.23.349q-.885.073-1.333-.158a1.1 1.1 0 0 1-.585-.704q-.136-.474-.136-1.25V22.518q0-1.047.47-1.555a1.6 1.6 0 0 1 .592-.392l-5.075.448.035.033q.404.43.404 1.358v12.58q0 2.106-1.749 2.25a2.3 2.3 0 0 1-.786-.06 1.8 1.8 0 0 1-.656-.345 3.4 3.4 0 0 1-.568-.592q-.263-.343-.525-.704l-6.087-8.816v9.373q0 .916-.427 1.42a1.54 1.54 0 0 1-1.093.56q-.689.056-1.104-.384t-.415-1.346v-12.34q0-.786.175-1.247.15-.366.44-.648l-8.993.794q.18.148.318.336.28.38.47.829.191.447.486 1.198l4.186 9.976q.492 1.139.492 1.673 0 .556-.464 1.059a1.67 1.67 0 0 1-1.12.556 1.4 1.4 0 0 1-.656-.083 1.2 1.2 0 0 1-.46-.333q-.185-.219-.398-.687a37 37 0 0 1-.366-.827l-.765-1.944-6.514.537-.765 2.114q-.449 1.237-.765 1.684-.318.446-1.038.505a1.4 1.4 0 0 1-1.083-.358q-.47-.408-.47-.976 0-.328.11-.685.11-.36.36-1.001l4.099-10.725.42-1.11q.248-.647.525-1.085.132-.205.302-.38l-10.514.93q.133.037.261.085.754.255 1.334.796.579.54.88 1.296.3.756.3 1.629 0 1.788-1.011 2.942-1.011 1.152-3.065 1.769.862.387 1.65 1.217.786.83 1.404 1.788.618.96.962 1.743t.344 1.09q0 .315-.202.644a1.6 1.6 0 0 1-.552.536q-.35.21-.809.247-.546.045-.918-.18-.371-.227-.64-.597-.267-.37-.726-1.097l-1.3-2.053q-.7-1.131-1.252-1.708-.552-.576-1.12-.759-.568-.182-1.432-.11l-1.136.093v5.14q0 1.013-.448 1.53-.45.518-1.17.577-.776.065-1.202-.403-.426-.466-.426-1.437V26.577q0-1.047.47-1.555.027-.028.057-.055l-6.415.567a3.6 3.6 0 0 1 1.45.967q.438.483.667 1.09.23.61.23 1.308 0 2.4-2.405 3.711 3.159.744 3.159 3.646 0 1.343-.689 2.473a4.65 4.65 0 0 1-1.858 1.741 7 7 0 0 1-1.683.57q-.95.204-2.218.308l-4.897.404q-1.06.087-1.513-.35a1 1 0 0 1-.083-.09v.633s.06.116.178.147l74.468 19.491 18.663-29.366v-.9q-.15.365-.362.71-.749 1.22-2.191 1.993m-80.915-8.486-.015-.006zM34.298 6.68l-1.726.156c-.62.056-.899.504-.899.92v13.06c0 .517.362.833.9.784l1.725-.156c.536-.049.898-.43.898-.947V7.438c0-.417-.278-.814-.898-.758m66.11 15.023c-.155 0-.161.111-.161.111l.001.041q0 .578-.41 1.076a1.43 1.43 0 0 1-1.021.548q-.558.046-.847-.209-.29-.255-.629-.859-.437-.87-1.05-1.326-.611-.457-1.966-.346-1.257.105-2.028.718-.77.615-.77 1.39 0 .48.262.807.262.329.721.541.46.214.93.316.47.104 1.551.287a23 23 0 0 1 2.454.496q1.098.291 1.869.773t1.202 1.282l.045.092v-5.627s-.02-.11-.153-.11m-87.76.833v-9.243c0-1.344-.529-2.46-1.528-3.227-.997-.767-2.223-1.089-3.641-.96-1.777.16-3.116.393-4.001.699-.631.24-.7.712-.7.902v1.168q.002.34.177.555c.15.18.374.265.632.241.042-.003.146-.022.187-.034.686-.209 1.932-.394 3.705-.554q.684-.065 1.179.412c.33.303.495.678.495 1.115v.772l-3.955.357c-1.42.129-2.655.682-3.67 1.647C.514 17.347 0 18.516 0 19.863c0 1.364.524 2.46 1.558 3.254.995.763 2.22 1.087 3.64.959l6.58-.595a.926.926 0 0 0 .87-.945m-3.495-1.82-3.955.358c-.474.042-.88-.086-1.207-.388a1.48 1.48 0 0 1-.497-1.139c0-.436.166-.842.497-1.202a1.8 1.8 0 0 1 1.207-.604l3.955-.358zm17.073 10.438 2.907-.24q1.17-.096 1.967-.364.798-.267 1.219-.787.42-.52.42-1.372 0-.665-.338-1.145a1.83 1.83 0 0 0-.94-.68q-.57-.195-2.24-.056l-2.995.247zm-9.476-8.123 1.697-.153c.537-.049.897-.43.897-.948v-9.242c0-.433.17-.851.497-1.229a1.8 1.8 0 0 1 1.208-.604l2.281-.206c.457-.041.849.093 1.178.413.33.302.497.678.497 1.114v9.243c0 .517.361.833.898.784l1.727-.156a.925.925 0 0 0 .868-.945V11.86c0-1.376-.526-2.463-1.556-3.225-.997-.767-2.212-1.09-3.612-.963l-2.281.206a6.1 6.1 0 0 0-3.67 1.622c-.999.946-1.527 2.158-1.527 3.504v9.242c0 .518.361.834.898.785m-.7 11.57q-.852-.476-2.546-.336l-3.377.278v4.67l3.487-.287q3.29-.27 3.29-2.64 0-1.21-.853-1.685m-5.923-2.382 2.973-.245q1.213-.1 1.874-.383a2 2 0 0 0 1.011-.957q.273-.48.273-1.048 0-1.21-.863-1.538-.862-.327-2.634-.181l-2.634.217z" clip-rule="evenodd"/></svg>
