<svg xmlns="http://www.w3.org/2000/svg" width="193" height="32" fill="none"><g fill="#fff" clip-path="url(#a)"><path d="M149.524 19.711h-3.328a1 1 0 0 1-.684-.297 1 1 0 0 1-.293-.691v-.793a1.03 1.03 0 0 1 .293-.692 1 1 0 0 1 .684-.296h2.845a.97.97 0 0 0 .691-.29 1 1 0 0 0 .286-.699 1 1 0 0 0-.286-.699.98.98 0 0 0-.691-.29h-2.873a1 1 0 0 1-.684-.296 1 1 0 0 1-.293-.692v-.793a1.03 1.03 0 0 1 .293-.691 1 1 0 0 1 .684-.297h3.264a.98.98 0 0 0 .692-.29.996.996 0 0 0 0-1.398.98.98 0 0 0-.692-.29h-3.917a.66.66 0 0 0-.653.53l-2.089 9.964v.199a.94.94 0 0 0 .978.793h5.741a.98.98 0 0 0 .692-.29.996.996 0 0 0 0-1.398.98.98 0 0 0-.692-.29h.025zM77.09 10.276h-1.306a1 1 0 0 0-.54.163 1.05 1.05 0 0 0-.374.431l-2.872 6.995s-.007.037-.018.048a.07.07 0 0 1-.046.018q-.066 0-.067-.066l-2.872-6.995a1.25 1.25 0 0 0-.325-.463c-.26-.2-.589.065-.653.394L65.866 20.9a.5.5 0 0 0 .064.33.94.94 0 0 0 .846.528h.392a1.01 1.01 0 0 0 .953-.989v-6.466s.007-.033.017-.048a.07.07 0 0 1 .046-.018c.018 0 .036.008.046.018a.07.07 0 0 1 .018.048l2.675 6.796a.92.92 0 0 0 .91.593h.261c.19 0 .381-.057.54-.162.163-.105.29-.254.374-.431l2.675-6.731s.007-.036.018-.047a.07.07 0 0 1 .046-.018c.017 0 .035.007.045.018a.07.07 0 0 1 .018.047v6.401c.007.26.113.507.293.692.183.184.427.29.684.297h.392a1 1 0 0 0 .685-.297 1 1 0 0 0 .293-.692v-9.5a1.2 1.2 0 0 0-.37-.685 1.2 1.2 0 0 0-.714-.304m29.901 5.34h-2.872a.9.9 0 0 0-.646.272.93.93 0 0 0-.268.655c0 .246.095.482.268.652a.9.9 0 0 0 .646.271h.522c.522 0 1.044.464.783.989-.392.858-1.175 1.321-2.414 1.321-1.827 0-2.935-1.386-2.935-3.762 0-2.375 1.175-3.761 2.935-3.761a2.35 2.35 0 0 1 2.09 1.057 1.23 1.23 0 0 0 1.044.659h.586a.83.83 0 0 0 .702-.304.82.82 0 0 0 .148-.753 4.84 4.84 0 0 0-1.87-2.082 4.8 4.8 0 0 0-2.696-.688c-3.003 0-5.286 2.176-5.286 5.872 0 3.697 2.153 5.873 5.353 5.873 2.872 0 4.894-1.846 4.894-4.815v-.464q.002-.197-.07-.383a1 1 0 0 0-.212-.326.96.96 0 0 0-.699-.282M88.35 17.206h-.198a.96.96 0 0 1-.445-.12.99.99 0 0 1-.47-1.199l.978-3.033s.007-.033.018-.047a.07.07 0 0 1 .046-.018q.028 0 .046.018a.07.07 0 0 1 .017.047l.978 3.034a1.1 1.1 0 0 1-.187.89 1.06 1.06 0 0 1-.794.432m1.659-6.268a.98.98 0 0 0-.915-.659h-1.697a.96.96 0 0 0-.56.185 1 1 0 0 0-.354.474l-3.264 9.501a.99.99 0 0 0 .127.89 1 1 0 0 0 .342.308c.138.073.29.116.441.12h.523a.96.96 0 0 0 .56-.185 1 1 0 0 0 .354-.474l.391-1.253a.98.98 0 0 1 .914-.659h2.675c.201 0 .395.065.561.185.163.12.286.282.353.474l.392 1.253a.98.98 0 0 0 .914.659h.522a.94.94 0 0 0 .441-.12 1.01 1.01 0 0 0 .512-.738 1.1 1.1 0 0 0-.039-.46l-3.197-9.5zm24.548-.667h-.459a1 1 0 0 0-.685.297 1 1 0 0 0-.293.692v9.5c.007.261.113.508.293.692.18.185.427.29.685.297h.459a1 1 0 0 0 .684-.297 1 1 0 0 0 .293-.691v-9.501a1.1 1.1 0 0 0-.303-.68 1.04 1.04 0 0 0-.674-.309m11.421 1.981c.441-.011.875.09 1.263.3s.716.515.956.891a1.195 1.195 0 0 0 1.112.79h.455a.816.816 0 0 0 .868-.663.84.84 0 0 0-.017-.395c-.653-1.98-2.414-3.103-4.701-3.103-3.003 0-5.286 2.111-5.286 5.873s2.22 5.873 5.286 5.873c2.414 0 4.048-1.322 4.634-2.97a.84.84 0 0 0-.149-.752.8.8 0 0 0-.314-.24.8.8 0 0 0-.388-.064h-.522a1.3 1.3 0 0 0-.66.246c-.194.137-.349.33-.448.546a2.36 2.36 0 0 1-2.156 1.188c-1.698 0-2.873-1.322-2.873-3.762s1.175-3.762 2.936-3.762m33.677 7.395h-.522a1 1 0 0 1-.685-.297 1 1 0 0 1-.293-.692v-5.344a1.03 1.03 0 0 1 .293-.692c.184-.184.427-.29.685-.297h.522c2.153 0 3.264 1.123 3.264 3.628s-1.108 3.697-3.264 3.697m.131-9.37h-3.067a1 1 0 0 0-.977.988v9.501a1 1 0 0 0 .977.988h3.067c3.458 0 5.547-2.176 5.547-5.742 0-3.567-2.153-5.742-5.547-5.742m17.292 9.438h-3.328a1 1 0 0 1-.685-.297 1 1 0 0 1-.293-.691v-.793a1.03 1.03 0 0 1 .293-.692 1 1 0 0 1 .685-.296h2.872a.98.98 0 0 0 .692-.29.996.996 0 0 0 0-1.398.98.98 0 0 0-.692-.29h-2.872a1 1 0 0 1-.685-.296 1 1 0 0 1-.293-.692v-.793a1.03 1.03 0 0 1 .293-.691 1 1 0 0 1 .685-.297h3.264a.98.98 0 0 0 .692-.29.995.995 0 0 0 0-1.398.98.98 0 0 0-.692-.29h-5.678a1 1 0 0 0-.684.298 1 1 0 0 0-.293.691v9.501c.007.26.113.507.293.692a1 1 0 0 0 .684.296h5.742a1 1 0 0 0 .684-.296 1 1 0 0 0 .011-1.402.96.96 0 0 0-.699-.282m14.749-9.44h-.458a1.015 1.015 0 0 0-.981.988v6.138q0 .065-.064.065h-.063l-4.57-6.73a.93.93 0 0 0-.784-.395h-.614a1 1 0 0 0-.684.297 1 1 0 0 0-.293.691v9.5c.007.261.113.508.293.692a1 1 0 0 0 .684.297h.456a1 1 0 0 0 .684-.297 1 1 0 0 0 .293-.691v-6.202s.007-.037.018-.048a.07.07 0 0 1 .046-.018h.063l4.633 6.731a.92.92 0 0 0 .784.395h.585a1 1 0 0 0 .685-.297 1 1 0 0 0 .293-.691v-9.501a1.14 1.14 0 0 0-.353-.638 1.1 1.1 0 0 0-.667-.286M37.627 8.15l3.042 3.669c.349.412.656.749.783.944a4.97 4.97 0 0 1 1.419 3.487c-.085 1.543-1.066 2.593-1.97 3.715l-2.127 2.564-1.112 1.328a.313.313 0 0 0 .247.518h11.095c1.693 0 3.828 1.463 3.705 3.679a3.84 3.84 0 0 1-1.105 2.686 3.76 3.76 0 0 1-2.657 1.12H31.571c-1.143 0-4.216.126-5.077-2.564a3.2 3.2 0 0 1-.071-1.742 7.7 7.7 0 0 1 1.168-2.364 111 111 0 0 1 2.752-3.947c1.204-1.687 2.439-3.32 3.653-5.04a.33.33 0 0 0 .067-.195.33.33 0 0 0-.067-.196l-4.415-5.315a.3.3 0 0 0-.11-.09.3.3 0 0 0-.137-.033q-.074 0-.137.032a.3.3 0 0 0-.11.09c-1.182 1.616-6.359 8.763-7.463 10.211s-3.822 1.528-5.328 0l-6.906-7.01a.32.32 0 0 0-.346-.069.33.33 0 0 0-.194.298v13.476a4.63 4.63 0 0 1-.801 2.683 4.54 4.54 0 0 1-2.195 1.71 3.74 3.74 0 0 1-1.772.173 3.78 3.78 0 0 1-2.823-2.024 3.86 3.86 0 0 1-.423-1.749V3.962a4.17 4.17 0 0 1 .89-2.397A4.1 4.1 0 0 1 3.831.149 4.17 4.17 0 0 1 7.89 1.268l10.615 10.746a.3.3 0 0 0 .112.072.31.31 0 0 0 .36-.112l7.541-10.558A3.75 3.75 0 0 1 29.383.03H49a3.75 3.75 0 0 1 2.834 1.307 3.84 3.84 0 0 1 .899 3.013 3.9 3.9 0 0 1-1.32 2.393 3.82 3.82 0 0 1-2.55.927H37.876a.3.3 0 0 0-.155.047.32.32 0 0 0-.145.279c0 .054.022.109.053.156z"/></g><defs><clipPath id="a"><path fill="#fff" d="M.828.004h192v32h-192z"/></clipPath></defs></svg>