<svg xmlns="http://www.w3.org/2000/svg" version="1.1" xmlns:xlink="http://www.w3.org/1999/xlink" xmlns:svgjs="http://svgjs.dev/svgjs" width="40" height="40"><svg xmlns="http://www.w3.org/2000/svg" width="40" height="40" fill="none"><path fill="black" d="M19.453.496c.055-.661 1.024-.661 1.079 0l1.263 15.16 6.657-5.633c1.013-.858 2.383.512 1.525 1.526l-5.627 6.65 15.152 1.263c.662.055.662 1.024 0 1.079L24.35 21.803l5.627 6.65c.858 1.015-.512 2.384-1.525 1.526l-6.657-5.633-1.263 15.159c-.055.661-1.024.661-1.079 0L18.19 24.337l-6.667 5.642c-1.014.858-2.383-.511-1.525-1.525l5.628-6.652L.496 20.54c-.661-.055-.661-1.024 0-1.079l15.13-1.26-5.63-6.654c-.857-1.013.512-2.383 1.526-1.525l6.667 5.642zM20 20l.001.001h-.002z"></path></svg><style>@media (prefers-color-scheme: light) { :root { filter: none; } }
@media (prefers-color-scheme: dark) { :root { filter: invert(100%); } }
</style></svg>