<svg xmlns="http://www.w3.org/2000/svg" width="44" height="23" fill="none"><path fill="#CCFD10" d="M0 22.536v-2.464h2.464v2.464zm2.464-2.464v-2.464h4.928v2.464zm4.928-2.464V15.16h4.912v2.448zm4.912-2.448v-2.464h2.464v2.464zm-4.912-2.464v-2.464h4.912v2.464zm-4.928-2.464V7.768h4.928v2.464zM0 7.768V5.304h2.464v2.464z"/><path fill="#fff" d="M18.179 10.232V7.768h2.464v2.464zm4.928 0V7.768h2.464v2.464zm-2.464-2.464V5.304h-2.464V2.84h2.464V.392h2.464V2.84h2.464v2.464h-2.464v2.464zm20.644 14.768v-2.464h2.464v2.464zm-4.913-2.464v-2.464h4.912v2.464zm-4.928-2.464V15.16h4.928v2.448zm-2.463-2.448v-2.464h2.464v2.464zm2.464-2.464v-2.464h4.927v2.464zm4.927-2.464V7.768h4.912v2.464zm4.912-2.464V5.304h2.465v2.464z"/></svg>