<svg xmlns="http://www.w3.org/2000/svg" width="42" height="25" fill="none"><path fill="#fff" d="M0 22.536v-2.464h2.464v2.464zm2.464-2.464v-2.464h4.928v2.464zm4.928-2.464V15.16h4.912v2.448zm4.912-2.448v-2.464h2.464v2.464zm-4.912-2.464v-2.464h4.912v2.464zm-4.928-2.464V7.768h4.928v2.464zM0 7.768V5.304h2.464v2.464z"/><path fill="#8A8A8A" d="M18.179 25v-4.928h2.464V25zm2.464-4.928v-7.376h2.464v7.376zm2.464-7.376V5.304h2.464v7.392zm2.464-7.392V.392h2.448v4.912zM31.451 25v-4.928h2.464V25zm2.464-4.928v-7.376h2.464v7.376zm2.464-7.376V5.304h2.464v7.392zm2.464-7.392V.392h2.448v4.912z"/></svg>