<svg xmlns="http://www.w3.org/2000/svg" width="33" height="18" fill="none"><path fill="#8A8A8A" d="M0 17.232v-2.464h2.464v2.464zm2.464-2.464v-2.464h4.928v2.464zm4.928-2.464V9.856h4.912v2.448zm4.912-2.448V7.392h2.464v2.464zM7.392 7.392V4.928h4.912v2.464zM2.464 4.928V2.464h4.928v2.464zM0 2.464V0h2.464v2.464z"/><path fill="#fff" d="M18.179 17.232v-2.464h2.464v2.464zm2.464-2.464v-2.464h4.928v2.464zm4.928-2.464V9.856h4.912v2.448zm4.912-2.448V7.392h2.464v2.464zM25.57 7.392V4.928h4.912v2.464zm-4.928-2.464V2.464h4.928v2.464zm-2.464-2.464V0h2.464v2.464z"/></svg>