<svg xmlns="http://www.w3.org/2000/svg" width="31" height="41" fill="none"><path fill="#CCFD10" d="M5.563.734h20.043q.792.138.792.793V5.52l-4.402.027v8.012h3.61q.792.11.792.793v3.609h3.61q.82.136.82.793v16.05q0 .794-.82.794h-3.61L26.426 40l-21.656.082v-4.484H1.16q-.792 0-.793-.793V18.754q.137-.793.793-.793h3.61v-3.61q.136-.792.793-.792h3.226V5.137H5.563q-.794 0-.793-.793V1.527q.136-.792.793-.793m8.039 4.403V17.55q0 .82-.82.82h-3.61v3.992h-3.61q-.792.137-.792.82v3.583h20.836q.792 0 .792-.793v-2.79q0-.82-.793-.82h-3.609V18.37h-3.61q-.792 0-.792-.82V5.137zm-4.43 26.058v3.992h4.02v-3.992z"/></svg>