<svg xmlns="http://www.w3.org/2000/svg" width="202" height="40" fill="none"><path fill="#fff" d="M193.657 31.384q-2.56 0-4.448-1.088-1.887-1.12-2.912-3.136t-1.024-4.704q0-2.688 1.024-4.672 1.024-2.016 2.88-3.136 1.888-1.12 4.384-1.12 2.433 0 4.256 1.088 1.857 1.089 2.848 3.136.993 2.048.992 4.928v.928h-12.128q.129 2.24 1.216 3.392 1.12 1.12 2.944 1.12 1.377 0 2.272-.608.929-.64 1.28-1.76l4.192.256q-.703 2.496-2.784 3.936-2.048 1.44-4.992 1.44m-4.128-10.528h7.904q-.128-2.079-1.184-3.072-1.056-1.023-2.688-1.024-1.631 0-2.72 1.056-1.056 1.056-1.312 3.04m-14.082 10.528q-2.56 0-4.448-1.088-1.888-1.12-2.944-3.136-1.024-2.016-1.024-4.704t1.024-4.672q1.057-2.016 2.944-3.136 1.889-1.12 4.448-1.12 2.177 0 3.872.768 1.696.768 2.752 2.208 1.089 1.409 1.344 3.456l-4.224.224q-.255-1.632-1.28-2.464-.991-.864-2.464-.864-1.983 0-3.072 1.504-1.088 1.473-1.088 4.096 0 2.657 1.088 4.128 1.089 1.473 3.072 1.472 1.504 0 2.496-.864 1.024-.864 1.248-2.688l4.224.192q-.255 2.049-1.312 3.552a7.14 7.14 0 0 1-2.752 2.336q-1.695.8-3.904.8M149.125 31V13.912h3.712l.16 4.8-.48-.192q.257-1.791 1.056-2.88.8-1.087 1.952-1.6 1.152-.512 2.528-.512 1.888 0 3.168.832 1.312.832 1.984 2.304.672 1.44.672 3.36V31h-4.096v-9.664q0-1.44-.288-2.432-.288-.991-.96-1.504-.64-.544-1.728-.544-1.632 0-2.624 1.152-.96 1.152-.96 3.328V31zm-10.882.384q-2.56 0-4.448-1.088-1.887-1.12-2.912-3.136t-1.024-4.704 1.024-4.672q1.024-2.016 2.88-3.136 1.888-1.12 4.384-1.12 2.433 0 4.256 1.088 1.857 1.089 2.848 3.136.993 2.048.992 4.928v.928h-12.128q.129 2.24 1.216 3.392 1.12 1.12 2.944 1.12 1.377 0 2.272-.608.929-.64 1.28-1.76l4.192.256q-.703 2.496-2.784 3.936-2.048 1.44-4.992 1.44m-4.128-10.528h7.904q-.128-2.079-1.184-3.072-1.056-1.023-2.688-1.024-1.632 0-2.72 1.056-1.056 1.056-1.312 3.04M122.892 31V13.912h4.096V31zm-.064-19.36V7.992h4.256v3.648zM118.057 31q-1.855 0-2.976-.96t-1.12-3.072V8.28h4.096v18.272q0 .64.32.96.353.32.96.32h1.248V31zm-12.149 0V13.912h4.096V31zm-.064-19.36V7.992h4.256v3.648zM95.702 31.384q-2.528 0-4.256-.736-1.697-.735-2.624-2.048a5.83 5.83 0 0 1-1.056-2.976l4.192-.192q.223 1.345 1.12 2.08.895.736 2.656.736 1.44 0 2.24-.448.831-.48.832-1.472 0-.576-.288-.96t-1.088-.672-2.368-.576q-2.625-.447-4.128-1.088-1.505-.671-2.144-1.664-.609-.991-.608-2.464 0-2.4 1.824-3.872 1.856-1.504 5.408-1.504 2.303 0 3.872.768 1.568.737 2.432 2.048.895 1.28 1.12 2.944l-4.128.192a4.1 4.1 0 0 0-.576-1.504 2.6 2.6 0 0 0-1.12-.96q-.704-.352-1.664-.352-1.44 0-2.176.576t-.736 1.536q0 .672.32 1.12.352.448 1.12.736.768.256 2.048.48 2.688.416 4.224 1.088 1.567.64 2.208 1.664.672.993.672 2.4 0 1.632-.928 2.784-.897 1.152-2.56 1.76-1.632.576-3.84.576m-17.826 0q-2.56 0-4.448-1.088-1.888-1.12-2.912-3.136t-1.024-4.704 1.024-4.672q1.025-2.016 2.88-3.136 1.888-1.12 4.384-1.12 2.432 0 4.256 1.088 1.856 1.089 2.848 3.136t.992 4.928v.928H73.748q.127 2.24 1.216 3.392 1.12 1.12 2.944 1.12 1.377 0 2.272-.608.928-.64 1.28-1.76l4.192.256q-.704 2.496-2.784 3.936-2.048 1.44-4.992 1.44m-4.128-10.528h7.904q-.128-2.079-1.184-3.072-1.056-1.023-2.688-1.024-1.632 0-2.72 1.056-1.056 1.056-1.312 3.04M49.563 31V8.28h9.503q2.465 0 4.256.832 1.793.832 2.784 2.368.993 1.537.993 3.616 0 1.569-.672 2.784a5.35 5.35 0 0 1-1.825 1.952q-1.119.736-2.496.896l-.16-.32q2.209 0 3.392.992 1.217.993 1.377 3.04L67.29 31h-4.224l-.48-5.952q-.095-1.344-.864-1.984-.767-.64-2.56-.64h-5.44V31zm4.16-12.224h5.087q1.889 0 2.944-.896 1.057-.896 1.056-2.528 0-1.664-1.088-2.56-1.055-.896-3.104-.896h-4.896z"/><path fill="#fff" fill-rule="evenodd" d="M19.453.496c.055-.661 1.024-.661 1.079 0l1.263 15.16 6.657-5.633c1.013-.858 2.383.512 1.525 1.526l-5.627 6.65 15.152 1.263c.662.055.662 1.024 0 1.079L24.35 21.803l5.627 6.65c.858 1.015-.512 2.384-1.525 1.526l-6.657-5.633-1.263 15.159c-.055.661-1.024.661-1.079 0L18.19 24.337l-6.667 5.642c-1.014.858-2.383-.511-1.525-1.525l5.628-6.652L.496 20.54c-.661-.055-.661-1.024 0-1.079l15.13-1.26-5.63-6.654c-.857-1.013.512-2.383 1.526-1.525l6.667 5.642zM20 20l.001.001h-.002z" clip-rule="evenodd"/></svg>