<svg xmlns="http://www.w3.org/2000/svg" width="40" height="40" fill="none"><path fill="#935DE5" d="M18.523.871h2.817q.82.137.82.82v7.246q0 .82-.82.82h-2.817q-.82 0-.82-.82V1.691q.137-.82.82-.82M5.207 5.301h3.227q.82.135.82.82v2.816q0 .82-.82.82H5.207q-.793 0-.793-.82V6.122q.11-.82.793-.82m26.223 0h2.816q.82.135.82.82v2.816q0 .82-.82.82H31.43q-.82 0-.82-.82V6.122q.136-.82.82-.82m-17.336 8.476H25.77q.82.137.82.82v11.676q0 .82-.82.82H14.094q-.82 0-.82-.82V14.598q.136-.82.82-.82m-12.906 4.43h7.246q.82.137.82.82v2.817q0 .82-.82.82H.367v-3.637q.137-.82.82-.82m30.242 0h7.246q.82.137.82.82v2.817q0 .82-.82.82H31.43q-.82 0-.82-.82v-2.817q.136-.82.82-.82M5.207 31.113h3.227q.82.137.82.82v3.227q0 .793-.82.793H5.207q-.793 0-.793-.793v-3.226q.11-.82.793-.82m13.316 0h2.817q.82.137.82.82v7.247q0 .82-.82.82h-2.817q-.82 0-.82-.82v-7.246q.137-.82.82-.82m12.907 0h2.816q.82.137.82.82v3.227q0 .793-.82.793H31.43q-.82 0-.82-.793v-3.226q.136-.82.82-.82"/></svg>