<svg xmlns="http://www.w3.org/2000/svg" width="34" height="25" fill="none"><path fill="#8A8A8A" d="M23.528 25v-4.928h2.464V25zm2.464-4.928v-7.376h2.464v7.376zm2.464-7.376V5.304h2.464v7.392zm2.464-7.392V.392h2.448v4.912z"/><path fill="#fff" d="M6.397 13.002H4.795q-.357.056-.357.356v1.617H2.822q-.356.054-.356.356v1.602H.864q-.356.055-.356.356v1.424q0 .357.356.357h1.602v1.616q0 .356.356.356h1.616v1.602q0 .356.357.356H6.04q.356 0 .356-.356V19.07h11.422q.356 0 .356-.357V17.29q-.055-.356-.356-.356H6.397zm5.903.397h1.602q.356-.055.356-.355v-1.617h1.603q.356-.054.356-.356V9.47l1.602-.014q.356-.054.356-.356V7.675q0-.357-.37-.356h-1.602V5.716q0-.356-.356-.356l-1.616.014V3.758q0-.356-.356-.356l-1.247.014q-.356 0-.356.356l.014 3.56-11.422.042q-.356 0-.356.356v1.424q.054.356.356.356l11.422-.027z"/></svg>